<svg xmlns="http://www.w3.org/2000/svg" viewBox="0 0 48 48">
  <rect x="0" y="0" width="48" height="48" rx="10" fill="#07C160"/>
  <path fill="#FFFFFF" d="M30 13c7.2 0 13 4.8 13 10.8S37.2 34.6 30 34.6c-1.1 0-2.2-.1-3.3-.3-.3-.1-.6 0-.8.2l-3.7 2.7c-.4.3-.9-.1-.8-.6l.7-2.6c.1-.4-.1-.8-.5-1-3.6-1.9-6-5.2-6-9.2C15.6 17.8 22.8 13 30 13z"/>
  <circle cx="25.8" cy="24.2" r="1.6" fill="#FFFFFF"/>
  <circle cx="33.8" cy="24.2" r="1.6" fill="#FFFFFF"/>
  <path fill="#FFFFFF" d="M18.2 30.2c-5.3 0-9.6-3.6-9.6-8s4.3-8 9.6-8c.9 0 1.9.1 2.7.3.3.1.6 0 .8-.2l2.4-1.8c.4-.3.9.1.8.6l-.5 1.9c-.1.4.1.8.4 1 2.4 1.4 3.9 3.6 3.9 6.2 0 4.4-4.3 8-9.5 8z"/>
  <circle cx="14.6" cy="22.1" r="1.3" fill="#FFFFFF"/>
  <circle cx="20.6" cy="22.1" r="1.3" fill="#FFFFFF"/>
</svg>
